<?xml version="1.0" standalone="no"?>
<!DOCTYPE svg PUBLIC "-//W3C//DTD SVG 20010904//EN"
 "http://www.w3.org/TR/2001/REC-SVG-20010904/DTD/svg10.dtd">
<svg version="1.0" xmlns="http://www.w3.org/2000/svg"
 width="171.000000pt" height="171.000000pt" viewBox="0 0 171.000000 171.000000"
 preserveAspectRatio="xMidYMid meet">
<metadata>
Created by potrace 1.11, written by Peter Selinger 2001-2013
</metadata>
<g transform="translate(0.000000,171.000000) scale(0.100000,-0.100000)"
fill="#000000" stroke="none">
<path d="M706 1482 c-3 -5 -22 -9 -42 -10 -20 -1 -42 -6 -49 -12 -6 -5 -28
-12 -49 -14 -55 -8 -97 -36 -90 -61 3 -11 14 -26 25 -34 32 -23 21 -31 -38
-26 -85 7 -122 -2 -129 -31 -4 -15 -12 -23 -22 -22 -24 5 -25 -19 -2 -42 16
-16 19 -25 11 -33 -17 -17 -13 -41 10 -61 18 -15 19 -20 8 -27 -8 -5 -22 -9
-31 -9 -10 0 -23 -9 -30 -20 -8 -12 -24 -20 -38 -20 -14 0 -30 -4 -35 -9 -6
-5 -19 -11 -30 -13 -11 -2 -20 -8 -20 -13 -1 -6 -7 -27 -14 -47 -11 -33 -20
-97 -22 -150 -1 -35 35 -89 79 -119 24 -16 50 -28 57 -25 7 2 17 0 23 -6 10
-10 60 33 92 80 19 27 73 37 94 17 8 -8 22 -12 30 -9 17 6 53 -13 86 -46 16
-16 25 -18 46 -10 14 6 29 8 34 5 10 -6 19 -65 9 -65 -4 0 -15 -8 -25 -17 -14
-14 -32 -17 -92 -16 -61 2 -77 0 -88 -15 -20 -26 -29 -99 -14 -117 9 -11 9
-19 2 -28 -6 -7 -8 -17 -4 -23 12 -19 48 -34 58 -24 16 16 84 14 127 -5 19 -8
47 10 47 31 0 42 54 -9 80 -76 24 -61 20 -85 -12 -77 -12 4 -27 2 -32 -2 -6
-5 -44 -11 -84 -15 -70 -6 -110 -12 -142 -23 -10 -3 -6 -9 15 -18 l30 -13 -34
-1 c-25 -1 -32 -4 -24 -12 6 -6 62 -12 124 -14 174 -6 321 -15 331 -21 22 -14
158 -4 207 15 28 12 51 17 51 13 0 -4 6 0 13 10 8 9 33 18 61 21 48 5 75 17
40 17 -104 3 -247 14 -279 22 -22 5 -60 10 -85 12 -38 1 -45 5 -51 26 -4 19 4
39 36 85 23 33 47 76 54 96 14 43 72 114 110 133 16 9 42 12 65 9 36 -5 105
19 114 40 2 4 10 14 18 21 7 8 18 33 23 56 9 39 8 42 -16 51 -13 5 -32 9 -41
9 -9 0 -24 4 -32 10 -11 7 -25 -2 -56 -33 -51 -52 -81 -77 -94 -77 -13 0 -13
-17 0 -25 14 -9 12 -31 -2 -33 -79 -12 -88 -3 -68 65 12 46 77 98 130 107 62
9 110 34 110 57 0 11 5 29 10 39 22 41 176 6 217 -50 11 -16 75 -26 94 -15 5
4 6 12 2 18 -4 7 -9 47 -9 91 -1 43 -6 81 -12 85 -5 3 -9 18 -7 33 2 17 -5 34
-21 49 -13 12 -28 37 -34 55 -8 23 -18 34 -31 34 -10 0 -28 9 -38 19 -10 10
-28 22 -40 26 -21 6 -25 15 -22 47 3 22 -32 40 -78 40 -20 0 -42 5 -49 10 -13
12 -91 5 -101 -9 -3 -4 -18 -14 -33 -22 -22 -11 -30 -12 -43 -1 -9 7 -22 9
-32 5 -10 -5 -22 -7 -28 -6 -5 2 -14 4 -20 5 -49 10 -76 36 -37 36 28 0 42 14
36 37 -7 26 -94 74 -137 75 -17 0 -40 5 -49 9 -10 6 -19 5 -23 -1 -4 -7 -12
-7 -25 0 -10 6 -21 6 -24 2z m252 -740 c9 -7 9 -18 -2 -58 -9 -27 -15 -67 -14
-89 1 -49 -9 -110 -22 -135 -12 -23 -63 -60 -82 -60 -24 0 -40 41 -43 110 -3
47 -11 80 -29 115 -17 31 -24 56 -20 71 4 15 2 24 -5 24 -6 0 -11 4 -11 8 0
12 53 13 61 1 5 -9 17 -8 44 3 42 17 104 22 123 10z m-216 -181 c1 -18 1 -49
-1 -68 -2 -18 -31 -16 -31 2 0 8 -6 15 -14 15 -16 0 -29 27 -20 41 3 5 9 7 14
4 4 -3 10 4 13 15 6 24 36 17 39 -9z"/>
</g>
</svg>
